<?xml version="1.0" encoding="UTF-8"?> <svg xmlns="http://www.w3.org/2000/svg" width="785" height="285" fill="none"><g clip-path="url(#a)"><mask id="b" style="mask-type:luminance" maskUnits="userSpaceOnUse" x="0" y="0" width="785" height="285"><path d="M785 0H0v285h785V0Z" fill="#fff"></path></mask><g mask="url(#b)"><mask id="c" style="mask-type:luminance" maskUnits="userSpaceOnUse" x="0" y="0" width="785" height="285"><path d="M785 0H0v285h785V0Z" fill="#fff"></path></mask><g mask="url(#c)" fill="#204677"><path d="m114.453 59.343 5.206-14.307-2.1-.676a117.869 117.869 0 0 0-36.2-5.58 115.93 115.93 0 0 0-36.483 5.81l-2.075.688 5.129 14.12 1.995-.718a92.362 92.362 0 0 1 31.435-5.367 91.304 91.304 0 0 1 31.099 5.31l1.994.72ZM64.156 96.763l-2.029.716 5.547 15.1 1.981-.705a35.694 35.694 0 0 1 23.143-.313l1.945.632 5.552-15.107-2.089-.688a53.033 53.033 0 0 0-34.05.365Z"></path><path d="m111.996 103.348-2.263-1.6-5.768 15.707 1.117.959a34.361 34.361 0 0 1 12.076 26.052c0 19.119-15.9 34.674-35.452 34.674-19.553 0-35.454-15.558-35.454-34.676a34.432 34.432 0 0 1 11.28-25.312l1.05-.963-5.821-15.847-2.28 1.691a50.65 50.65 0 0 0-20.555 40.431c0 27.955 23.227 50.7 51.78 50.7 28.552 0 51.779-22.742 51.779-50.7a50.522 50.522 0 0 0-21.489-41.116ZM104.931 85.55l4.881-13.426a88.217 88.217 0 0 0-28.454-4.668 96.28 96.28 0 0 0-28.727 4.88l4.936 13.576 2-.719a65.376 65.376 0 0 1 43.393-.326l1.971.682Z"></path><path d="M124.226 9.476a36.907 36.907 0 0 0-7.016.685 82.823 82.823 0 0 0-4.966-2.7A69.24 69.24 0 0 0 81.644 0c-.2 0-.91.075-.775.054a69.532 69.532 0 0 0-35.737 10.228 36.567 36.567 0 1 0-15.644 71.425l7.43 18.808 2.27-2.011a64.807 64.807 0 0 1 7.524-5.74l1.416-.923-8.124-22.113-1.622.146c-2.246.203-4.51.051-6.71-.449-.129-.029-.24-.045-.185-.008l-.6-.238c-11.158-2.542-18.366-11.7-18.366-23.321a24.45 24.45 0 0 1 34.81-21.843l1.1.564 2.355-1.553a50.138 50.138 0 0 1 7.524-4.4 58.658 58.658 0 0 1 9.147-3.115 44.907 44.907 0 0 1 13.536-1.871c4.75-.076 9.485.562 14.045 1.892.927.226 1.878.517 2.851.813l1.35.406c.704.217 1.393.477 2.064.779a36.71 36.71 0 0 0-6.89 7.264l-2.093 2.917 3.562.433c3.353.4 6.429.895 9.406 1.5l1.116.227.807-.8a24.117 24.117 0 0 1 26.271-5.189 24.11 24.11 0 0 1 14.862 22.276l-.024.54a23.991 23.991 0 0 1-17.407 22.62 20.1 20.1 0 0 1-5.719.491l-1.032-.058a17.892 17.892 0 0 1-.615-.036l-1.6-.107-7.735 21.594 1.45.907a64.505 64.505 0 0 1 7.985 5.906l2.235 1.935 7.538-18.378a35.542 35.542 0 0 0 4.934-1.616 36.646 36.646 0 0 0 21.832-41.033A36.655 36.655 0 0 0 124.222 9.48l.004-.004ZM224.087 169.288a32.612 32.612 0 0 0 25.764 11.713c16.634 0 33.838-13.5 33.838-36.292 0-20.26-14.989-36.068-34.125-36.068-13.708 0-20.817 6.46-25.479 12l-.127.256h-1.713V75.541h-9.548v105.025h9.548v-11.934h1.715l.127.656Zm-2.037-24.023c0-15.942 10.545-27.514 25.076-27.514 17.625 0 25.653 14.04 25.653 27.084 0 13.531-8.713 27.228-25.364 27.228-14.221 0-25.362-11.771-25.362-26.798h-.003Z"></path><path d="M249.856 183.126a34.943 34.943 0 0 1-25.482-10.368v9.933h-13.8V73.416h13.8v43.7c5-5.317 12.422-10.6 25.193-10.6 20.328 0 36.25 16.776 36.25 38.192 0 24.048-18.283 38.418-35.961 38.418Zm-23.785-14.79a30.706 30.706 0 0 0 23.785 10.54c15.588 0 31.712-12.78 31.712-34.167 0-19.033-14.057-33.943-32-33.943-12.53 0-19.02 5.55-23.689 11.046l-.6 1.205h-5.156V77.665h-5.3v100.777h5.3v-11.935h5.587l.361 1.829Zm21.347 5.852c-15.415 0-27.488-12.705-27.488-28.923 0-17.174 11.438-29.639 27.2-29.639 19.085 0 27.779 15.141 27.779 29.209-.001 14.587-9.444 29.353-27.491 29.353Zm-.289-54.312c-13.3 0-22.95 10.678-22.95 25.389 0 13.836 10.208 24.674 23.239 24.674 15.258 0 23.24-12.629 23.24-25.1 0-12.025-7.363-24.963-23.529-24.963ZM308.179 82.702h-9.548v9.548h9.548v-9.548Z"></path><path d="M310.304 94.374h-13.8v-13.8h13.8v13.8Zm-9.546-4.249h5.3v-5.3h-5.3v5.3ZM308.179 113.732h-9.548v66.835h9.548v-66.835Z"></path><path d="M310.304 182.691h-13.8v-71.084h13.8v71.084Zm-9.546-4.249h5.3v-62.585h-5.3v62.585ZM345.489 181.333c13.851 0 22.8-8.033 22.8-20.4 0-10.393-6.238-17.254-19.631-21.55-12.3-3.959-14.771-7.652-14.771-12.31 0-4.777 3.5-8.894 11.316-8.894 5.423 0 10.055 5.1 11.375 9.878h10.6c-1.684-7.161-6.836-18.642-22.546-18.642-14.562 0-21.079 8.794-21.079 17.859 0 10.045 5.745 16.2 18.63 20.35 13.138 4.281 15.629 8.243 15.629 14.218 0 6.439-4.666 10.635-11.89 10.635-10.073 0-13.245-6.229-14.242-11h-10.623c2.509 11.929 11.169 19.856 24.432 19.856Z"></path><path d="M345.488 183.457c-13.763 0-23.674-8.055-26.513-21.549l-.539-2.562h14.966l.352 1.69c1.293 6.18 5.385 9.313 12.163 9.313 6.024 0 9.767-3.261 9.767-8.51 0-4.3-1.044-7.922-14.163-12.2-13.9-4.477-20.1-11.377-20.1-22.37 0-9.947 7.174-19.983 23.2-19.983 17.265 0 22.832 12.705 24.614 20.279l.614 2.611h-14.9l-.432-1.558c-1.106-4-4.986-8.319-9.326-8.319-5.756 0-9.192 2.53-9.192 6.769 0 3.04 1.027 6.338 13.3 10.288 14.2 4.554 21.1 12.265 21.1 23.572.013 13.476-10.002 22.529-24.911 22.529Zm-21.7-19.862c3.04 9.962 10.82 15.613 21.7 15.613 12.752 0 20.674-7 20.674-18.278 0-9.478-5.6-15.5-18.155-19.526-11.692-3.764-16.246-7.783-16.246-14.334 0-5.083 3.521-11.019 13.441-11.019 5.83 0 10.853 4.79 12.893 9.878h6.283c-2.314-7.076-7.636-14.392-19.749-14.392-13.991 0-18.954 8.476-18.954 15.734 0 8.972 5.131 14.453 17.155 18.328 12.63 4.115 17.1 8.365 17.1 16.24 0 7.632-5.633 12.759-14.016 12.759-8.187 0-13.771-3.889-15.895-11l-6.231-.003ZM409.437 179.676c4.06 0 8.54-.432 10.927-1.317v-8.461a40.793 40.793 0 0 1-9.1 1.019c-8.145 0-12.382-3.961-12.382-14.614v-35.41h21.482v-7.161h-21.482v-23.87h-9.548v23.87h-9.547v7.161h9.548v34.98c-.001 11.77 3.041 23.803 20.102 23.803Z"></path><path d="M409.439 181.8c-22.228 0-22.228-19.514-22.228-25.927v-32.856h-9.549v-11.41h9.549V87.738h13.8v23.869h21.477v11.41h-21.481v33.286c0 10.365 4.1 12.489 10.258 12.489a38.889 38.889 0 0 0 8.528-.94l2.7-.754v12.738l-1.386.514c-2.881 1.069-7.919 1.45-11.668 1.45Zm-27.528-63.032h9.549v37.105c0 14.992 5.544 21.678 17.979 21.678a43.812 43.812 0 0 0 8.8-.79v-4.26a49.2 49.2 0 0 1-6.976.54c-9.763 0-14.508-5.475-14.508-16.738v-37.535h21.484v-2.911h-21.482v-23.87h-5.3v23.87h-9.549l.003 2.911ZM464.121 118.037c1.994.005 3.983.199 5.94.58l.43.057v-9.607c0-.25-3.55-.363-5.688-.363-9.107 0-15.954 7.186-18.013 11.308l-.306.881h.138v-7.161h-11.934v66.834h11.934v-37.738c-.001-15.755 6.026-24.791 17.499-24.791Z"></path><path d="M448.745 182.691h-16.184v-71.084h16.184v2.241c3.683-3.763 9.317-7.268 16.06-7.268 5.362 0 7.81 0 7.81 2.487V121.1l-2.834-.377a30.131 30.131 0 0 0-5.661-.561c-12.706 0-15.375 12.326-15.375 22.666v39.863Zm-11.934-4.249h7.685v-35.614c0-17.1 7.152-26.915 19.624-26.915 1.42-.001 2.839.093 4.246.281v-5.279a71.742 71.742 0 0 0-3.561-.086c-8.256 0-14.321 6.669-16.053 10.016l-.007.048v2.124h-5.108l.859-2.871v-4.289h-7.685v62.585ZM581.712 180.566c13.851 0 22.8-8.032 22.8-20.4 0-10.393-6.238-17.254-19.633-21.55-12.3-3.96-14.773-7.652-14.773-12.31 0-4.777 3.5-8.894 11.319-8.894 5.421 0 10.053 5.1 11.374 9.877h10.6c-1.684-7.161-6.836-18.641-22.546-18.641-14.562 0-21.079 8.793-21.079 17.858 0 10.046 5.745 16.2 18.628 20.351 13.142 4.281 15.633 8.242 15.633 14.218 0 6.439-4.668 10.634-11.892 10.634-10.073 0-13.245-6.229-14.242-11h-10.622c2.508 11.93 11.169 19.857 24.433 19.857Z"></path><path d="M581.711 182.691c-13.765 0-23.675-8.056-26.511-21.549l-.54-2.562h14.967l.352 1.691c1.291 6.179 5.383 9.312 12.163 9.312 6.024 0 9.767-3.261 9.767-8.51 0-4.3-1.044-7.923-14.165-12.2-13.9-4.477-20.1-11.377-20.1-22.371 0-9.946 7.175-19.983 23.2-19.983 17.269 0 22.834 12.706 24.614 20.28l.614 2.611h-14.885l-.432-1.559c-1.106-4-4.986-8.319-9.325-8.319-5.757 0-9.193 2.531-9.193 6.77 0 3.039 1.027 6.337 13.3 10.288 14.2 4.554 21.105 12.265 21.105 23.571-.004 13.477-10.021 22.53-24.931 22.53Zm-21.7-19.862c3.039 9.963 10.818 15.613 21.7 15.613 12.754 0 20.678-7 20.678-18.279 0-9.477-5.6-15.5-18.157-19.525-11.694-3.765-16.249-7.784-16.249-14.334 0-5.083 3.521-11.019 13.443-11.019 5.829 0 10.852 4.79 12.892 9.878h6.282c-2.311-7.076-7.631-14.392-19.748-14.392-13.991 0-18.954 8.475-18.954 15.733 0 8.973 5.131 14.454 17.155 18.329 12.632 4.114 17.1 8.363 17.1 16.24 0 7.631-5.633 12.759-14.016 12.759-8.189 0-13.773-3.89-15.9-11l-6.226-.003ZM652.838 107.938c-20.68 0-36.274 15.533-36.274 36.131 0 20.762 15.594 36.418 36.274 36.418a35.961 35.961 0 0 0 36.275-36.418c0-20.935-15.257-36.131-36.275-36.131Zm0 63.073c-14.224 0-25.364-11.835-25.364-26.942 0-15.528 10.667-26.8 25.364-26.8 14.697 0 25.365 11.27 25.365 26.8 0 15.36-10.905 26.942-25.365 26.942Z"></path><path d="M652.839 182.612c-21.892 0-38.4-16.57-38.4-38.543 0-21.809 16.508-38.256 38.4-38.256 22.249 0 38.4 16.089 38.4 38.256a38.066 38.066 0 0 1-23.618 35.699 38.042 38.042 0 0 1-14.782 2.844Zm0-72.549c-19.469 0-34.151 14.619-34.151 34.006 0 19.55 14.682 34.294 34.151 34.294a33.854 33.854 0 0 0 34.149-34.294c0-19.705-14.363-34.006-34.149-34.006Zm0 63.072c-15.415 0-27.49-12.767-27.49-29.066 0-16.759 11.561-28.922 27.49-28.922 15.929 0 27.488 12.163 27.488 28.922 0 16.571-11.817 29.066-27.488 29.066Zm0-53.739c-13.466 0-23.241 10.376-23.241 24.673 0 13.916 10.208 24.817 23.241 24.817 13.248 0 23.238-10.669 23.238-24.817 0-14.297-9.772-24.673-23.238-24.673ZM773.965 170.151c-8.145 0-12.382-3.961-12.382-14.614v-35.411h19.1v-7.16h-19.1v-23.87h-9.548v23.87h-33.417V96.191c0-8.012 3.16-12.606 10.352-12.606a18.084 18.084 0 0 1 6.356.99v-8.56a28.882 28.882 0 0 0-7.728-1.047c-13.686 0-20.915 8-20.915 22.513v15.485h-9.548v7.16h9.548V179.8h11.935v-59.674h33.417v34.981c0 11.77 3.042 23.8 20.1 23.8 4.06 0 6.155-.431 10.929-1.317v-8.46c-4.776.669-6.506 1.021-9.099 1.021Z"></path><path d="M720.742 181.925h-16.184v-59.674h-9.546v-11.41h9.546v-13.36c0-15.887 8.181-24.636 23.04-24.636a30.89 30.89 0 0 1 8.308 1.128l1.545.438v13l-2.724-.8a16.006 16.006 0 0 0-5.756-.9c-3.83 0-8.229 1.192-8.229 10.482v14.65h29.169v-23.87h13.8v23.87h19.1v11.41h-19.1v33.286c0 10.365 4.1 12.489 10.256 12.489a40.114 40.114 0 0 0 6.167-.62l5.058-.717v12.67l-2.465.458a49.377 49.377 0 0 1-10.588 1.217c-22.226 0-22.226-19.514-22.226-25.927v-32.858h-29.171v59.674Zm-11.934-4.25h7.681v-59.673h37.667v37.105c0 14.992 5.544 21.678 17.977 21.678 2.96-.006 5.91-.327 8.8-.959v-4.244l-.2.028c-2.238.398-4.504.62-6.777.664-9.76 0-14.505-5.475-14.505-16.738v-37.534h19.1v-2.912h-19.1V91.22h-5.3v23.87h-37.662v-18.9c0-12.817 7.818-14.731 12.478-14.731 1.419-.03 2.838.09 4.231.36v-4.137a27.11 27.11 0 0 0-5.6-.585c-12.468 0-18.79 6.86-18.79 20.388v17.609h-9.547v2.912h9.547v59.669ZM511.014 108.704c-20.68 0-36.274 15.533-36.274 36.131 0 20.762 15.594 36.418 36.274 36.418a35.966 35.966 0 0 0 25.795-10.582 35.951 35.951 0 0 0 10.479-25.836c0-20.935-15.256-36.131-36.274-36.131Zm0 63.073c-14.223 0-25.364-11.834-25.364-26.942 0-15.527 10.667-26.8 25.364-26.8 14.697 0 25.365 11.271 25.365 26.8 0 15.36-10.905 26.947-25.365 26.947v-.005Z"></path><path d="M511.015 183.382c-21.892 0-38.4-16.57-38.4-38.543 0-21.809 16.508-38.255 38.4-38.255 22.249 0 38.4 16.089 38.4 38.255a38.052 38.052 0 0 1-11.095 27.346 38.06 38.06 0 0 1-27.305 11.197Zm0-72.549c-19.469 0-34.151 14.62-34.151 34.006 0 19.551 14.682 34.294 34.151 34.294a33.851 33.851 0 0 0 34.148-34.294c0-19.708-14.362-34.01-34.148-34.01v.004Zm0 63.073c-15.415 0-27.49-12.768-27.49-29.067 0-16.758 11.561-28.922 27.49-28.922 15.929 0 27.488 12.164 27.488 28.922 0 16.567-11.815 29.063-27.488 29.063v.004Zm0-53.74c-13.466 0-23.241 10.377-23.241 24.673 0 13.916 10.208 24.817 23.241 24.817 13.248 0 23.238-10.669 23.238-24.817 0-14.3-9.772-24.677-23.238-24.677v.004Z"></path></g></g></g><defs><clipPath id="a"><path fill="#fff" d="M0 0h785v285H0z"></path></clipPath></defs></svg> 